<?xml version="1.0" encoding="UTF-8" standalone="no"?>
<svg
   xmlns:dc="http://purl.org/dc/elements/1.1/"
   xmlns:cc="http://creativecommons.org/ns#"
   xmlns:rdf="http://www.w3.org/1999/02/22-rdf-syntax-ns#"
   xmlns:svg="http://www.w3.org/2000/svg"
   xmlns="http://www.w3.org/2000/svg"
   xmlns:sodipodi="http://sodipodi.sourceforge.net/DTD/sodipodi-0.dtd"
   xmlns:inkscape="http://www.inkscape.org/namespaces/inkscape"
   version="1.1"
   id="svg6394"
   viewBox="0 0 1343.9154 760.19455"
   height="1000"
   width="1000"
   inkscape:version="0.91 r13725"
   sodipodi:docname="thumb.svg">
  <sodipodi:namedview
     pagecolor="#ffffff"
     bordercolor="#666666"
     borderopacity="1"
     objecttolerance="10"
     gridtolerance="10"
     guidetolerance="10"
     inkscape:pageopacity="0"
     inkscape:pageshadow="2"
     inkscape:window-width="1614"
     inkscape:window-height="928"
     id="namedview24"
     showgrid="false"
     fit-margin-bottom="0"
     inkscape:zoom="0.30412371"
     inkscape:cx="799.39115"
     inkscape:cy="180.92711"
     inkscape:window-x="0"
     inkscape:window-y="0"
     inkscape:window-maximized="0"
     inkscape:current-layer="svg6394" />
  <defs
     id="defs6396">
    <clipPath
       id="clipPath258"
       clipPathUnits="userSpaceOnUse">
      <path
         id="path260"
         d="m 0,0 1224,0 0,792 L 0,792 0,0 Z"
         inkscape:connector-curvature="0" />
    </clipPath>
    <clipPath
       id="clipPath1384"
       clipPathUnits="userSpaceOnUse">
      <path
         id="path1386"
         d="m 0,0 1224,0 0,792 L 0,792 0,0 Z"
         inkscape:connector-curvature="0" />
    </clipPath>
  </defs>
  <metadata
     id="metadata6399">
    <rdf:RDF>
      <cc:Work
         rdf:about="">
        <dc:format>image/svg+xml</dc:format>
        <dc:type
           rdf:resource="http://purl.org/dc/dcmitype/StillImage" />
        <dc:title></dc:title>
      </cc:Work>
    </rdf:RDF>
  </metadata>
  <g
     transform="translate(0,-559.26153)"
     id="layer1">
    <g
       id="g254"
       transform="matrix(6.4059095,0,0,-6.4059095,-4323.143,3230.0899)">
      <g
         clip-path="url(#clipPath258)"
         id="g256">
        <g
           id="g1380"
           transform="matrix(0.69471603,0,0,0.69471603,646.20436,254.01381)">
          <g
             clip-path="url(#clipPath1384)"
             id="g1382">
            <g
               transform="matrix(2.1463851,0,0,2.1463851,199.67235,221.25134)"
               id="g1388">
              <path
                 id="path1390"
                 style="fill:#333333;fill-opacity:1;fill-rule:nonzero;stroke:none"
                 d="m 0,0 -58.877,-43.422 0,18.609 -7.044,-5.324 c 0,0 -8.956,-8.934 0.044,-20.451 l 0,-0.179 5.854,-2.937 1.146,-0.65 0,0.016 55.679,-27.234 66.071,68.585 0.072,1.96 L 0,0 Z"
                 inkscape:connector-curvature="0" />
            </g>
            <g
               transform="matrix(2.1463851,0,0,2.1463851,193.07179,86.223125)"
               id="g1392">
              <path
                 id="path1394"
                 style="fill:#cccccc;fill-opacity:1;fill-rule:nonzero;stroke:none"
                 d="M 0,0 14.874,52.094 -61.617,30.201 c -5.977,-7.197 0,-15.124 0,-15.124 l 61.575,-29.51 c 0,0 -3.02,8.083 0.042,14.433"
                 inkscape:connector-curvature="0" />
            </g>
            <g
               transform="matrix(2.1463851,0,0,2.1463851,329.46532,227.93648)"
               id="g1396">
              <path
                 id="path1398"
                 style="fill:#666666;fill-opacity:1;fill-rule:nonzero;stroke:none"
                 d="m 0,0 -48.672,-13.931 -14.874,-52.093 c -3.062,-6.35 -0.042,-14.433 -0.042,-14.433 L 0,-14.63 C -3.648,-6.995 0,0 0,0"
                 inkscape:connector-curvature="0" />
            </g>
            <g
               transform="matrix(2.1463851,0,0,2.1463851,334.83793,237.64006)"
               id="g1400">
              <path
                 id="path1402"
                 style="fill:#333333;fill-opacity:1;fill-rule:nonzero;stroke:none"
                 d="m 0,0 -62.826,11.027 -66.024,-48.806 0,-1.961 62.826,-30.805 L -0.026,-1.96 0,0 Z"
                 inkscape:connector-curvature="0" />
            </g>
            <g
               transform="matrix(2.1463851,0,0,2.1463851,181.30658,124.0508)"
               id="g1404">
              <path
                 id="path1406"
                 style="fill:#006837;fill-opacity:1;fill-rule:nonzero;stroke:none"
                 d="m 0,0 c 5.982,-2.674 15.53,1.866 17.208,7.854 l 6.169,22.014 c 1.301,4.64 4.057,8.825 7.902,12.362 l 2.3,2.117 -5.329,1.17 C 25.707,43.351 19.018,38.386 15.808,29.596 11.783,18.577 9.915,13.606 8.88,10.773 7.659,7.431 2.008,7.633 3.364,10.859 l 9.49,22.472 -7.719,2.195 c 10.66,4.782 15.396,9.014 18.032,11.108 l -4.911,1.078 -2.555,-1.903 C 11.448,42.643 5.687,39.568 -1.18,36.899 l -28.485,-11.07 c -6.753,-2.625 -10.563,-7.847 -6.529,-9.65 L 0,0 Z m 20.17,51.541 c 0.945,0.68 2.726,1.021 4.005,0.77 l 15.114,-2.966 c 1.453,-0.285 1.998,-1.138 1.189,-1.917 -0.827,-0.795 -2.732,-1.198 -4.224,-0.886 l -15.487,3.239 c -1.307,0.273 -1.561,1.065 -0.597,1.76"
                 inkscape:connector-curvature="0" />
            </g>
          </g>
        </g>
      </g>
    </g>
  </g>
</svg>
