<?xml version="1.0" encoding="UTF-8" standalone="no"?>
<svg
   xmlns:dc="http://purl.org/dc/elements/1.1/"
   xmlns:cc="http://creativecommons.org/ns#"
   xmlns:rdf="http://www.w3.org/1999/02/22-rdf-syntax-ns#"
   xmlns:svg="http://www.w3.org/2000/svg"
   xmlns="http://www.w3.org/2000/svg"
   xmlns:sodipodi="http://sodipodi.sourceforge.net/DTD/sodipodi-0.dtd"
   xmlns:inkscape="http://www.inkscape.org/namespaces/inkscape"
   enable-background="new 0 0 50 50"
   id="svg2"
   version="1.1"
   inkscape:version="0.91 r13725"
   sodipodi:docname="logo.svg"
   width="50"
   height="50"
   inkscape:export-filename="D:\git\asbh-hugo-sources\personalSite\static\img\logo.png"
   inkscape:export-xdpi="28.799999"
   inkscape:export-ydpi="28.799999">
  <metadata
     id="metadata10">
    <rdf:RDF>
      <cc:Work
         rdf:about="">
        <dc:format>image/svg+xml</dc:format>
        <dc:type
           rdf:resource="http://purl.org/dc/dcmitype/StillImage" />
        <dc:title></dc:title>
      </cc:Work>
    </rdf:RDF>
  </metadata>
  <defs
     id="defs8" />
  <sodipodi:namedview
     pagecolor="#ffffff"
     bordercolor="#666666"
     borderopacity="1"
     objecttolerance="10"
     gridtolerance="10"
     guidetolerance="10"
     inkscape:pageopacity="0"
     inkscape:pageshadow="2"
     inkscape:window-width="1920"
     inkscape:window-height="1137"
     id="namedview6"
     showgrid="false"
     fit-margin-top="0"
     fit-margin-left="0"
     fit-margin-right="0"
     fit-margin-bottom="0"
     inkscape:zoom="2.36"
     inkscape:cx="-141.78216"
     inkscape:cy="1.0429556"
     inkscape:window-x="-8"
     inkscape:window-y="-8"
     inkscape:window-maximized="1"
     inkscape:current-layer="svg2" />
  <flowRoot
     xml:space="preserve"
     id="flowRoot3338"
     style="font-style:normal;font-weight:normal;font-size:40px;line-height:125%;font-family:sans-serif;letter-spacing:0px;word-spacing:0px;fill:#000000;fill-opacity:1;stroke:none;stroke-width:1px;stroke-linecap:butt;stroke-linejoin:miter;stroke-opacity:1"
     transform="translate(-3.4347028,-1.0429568)"><flowRegion
       id="flowRegion3340"><rect
         id="rect3342"
         width="93.220337"
         height="87.288139"
         x="3.3898306"
         y="5.0847459" /></flowRegion><flowPara
       id="flowPara3348" /></flowRoot>  <flowRoot
     xml:space="preserve"
     id="flowRoot3355"
     style="font-style:normal;font-weight:normal;font-size:40px;line-height:125%;font-family:sans-serif;letter-spacing:0px;word-spacing:0px;fill:#000000;fill-opacity:1;stroke:none;stroke-width:1px;stroke-linecap:butt;stroke-linejoin:miter;stroke-opacity:1"
     transform="translate(-3.4347028,-1.0429568)"><flowRegion
       id="flowRegion3357"><rect
         id="rect3359"
         width="83.474579"
         height="91.525421"
         x="1.6949153"
         y="4.6610169" /></flowRegion><flowPara
       id="flowPara3361">ASBH</flowPara></flowRoot>  <flowRoot
     xml:space="preserve"
     id="flowRoot3363"
     style="font-style:normal;font-weight:normal;font-size:40px;line-height:125%;font-family:sans-serif;letter-spacing:0px;word-spacing:0px;fill:#c87137;fill-opacity:1;stroke:none;stroke-width:1px;stroke-linecap:butt;stroke-linejoin:miter;stroke-opacity:1;"
     transform="translate(2.6669922,-9.822618)"><flowRegion
       id="flowRegion3365"><rect
         id="rect3367"
         width="52.118649"
         height="43.644073"
         x="2.118644"
         y="0.42372876"
         style="fill:#c87137;fill-opacity:1;" /></flowRegion><flowPara
       id="flowPara3375"
       style="font-style:normal;font-variant:normal;font-weight:bold;font-stretch:normal;font-size:35px;line-height:125%;font-family:'Courier New';-inkscape-font-specification:'Courier New, Bold';text-align:start;writing-mode:lr-tb;text-anchor:start;fill:#c87137;fill-opacity:1;">AS</flowPara></flowRoot>  <flowRoot
     xml:space="preserve"
     id="flowRoot3363-0"
     style="font-style:normal;font-weight:normal;font-size:40px;line-height:125%;font-family:sans-serif;letter-spacing:0px;word-spacing:0px;fill:#000000;fill-opacity:1;stroke:none;stroke-width:1px;stroke-linecap:butt;stroke-linejoin:miter;stroke-opacity:1"
     transform="translate(-2.2232684,18.694879)"><flowRegion
       id="flowRegion3365-9"><rect
         id="rect3367-1"
         width="52.118649"
         height="43.644073"
         x="2.118644"
         y="0.42372876" /></flowRegion><flowPara
       id="flowPara3375-2"
       style="font-style:normal;font-variant:normal;font-weight:bold;font-stretch:normal;font-size:35px;line-height:125%;font-family:'Courier New';-inkscape-font-specification:'Courier New, Bold';text-align:start;writing-mode:lr-tb;text-anchor:start">BHS</flowPara></flowRoot>  <flowRoot
     xml:space="preserve"
     id="flowRoot3363-1"
     style="font-style:normal;font-weight:normal;font-size:40px;line-height:125%;font-family:sans-serif;letter-spacing:0px;word-spacing:0px;fill:#c87137;fill-opacity:1;stroke:none;stroke-width:1px;stroke-linecap:butt;stroke-linejoin:miter;stroke-opacity:1;"
     transform="translate(1.7767308,15.423692)"><flowRegion
       id="flowRegion3365-0"><rect
         id="rect3367-8"
         width="52.118649"
         height="43.644073"
         x="2.118644"
         y="0.42372876"
         style="fill:#c87137;" /></flowRegion><flowPara
       id="flowPara3375-4"
       style="font-style:normal;font-variant:normal;font-weight:bold;font-stretch:normal;font-size:35px;line-height:125%;font-family:'Courier New';-inkscape-font-specification:'Courier New, Bold';text-align:start;writing-mode:lr-tb;text-anchor:start;fill:#c87137;">BH</flowPara></flowRoot>  <path
     style="fill:#008080;fill-opacity:0"
     d="m 34.124619,22.644614 c -1.048729,-0.307249 -2.097458,-0.617918 -2.330508,-0.690374 -0.233051,-0.07246 -0.746278,0.01 -1.140503,0.183233 -0.394226,0.173234 -1.061599,0.248564 -1.483051,0.1674 -0.652013,-0.125566 -0.766277,-0.588999 -0.766277,-3.10787 0,-2.921694 0.01535,-2.962063 1.177087,-3.095518 0.973101,-0.111786 1.251397,0.07795 1.605886,1.094835 0.545374,1.564461 2.745399,2.64259 5.388183,2.640495 3.750361,-0.003 6.039069,-2.516367 3.984529,-4.3757 -0.422424,-0.382288 -2.186195,-1.010322 -3.919491,-1.395631 -5.691286,-1.265163 -7.600601,-2.86334 -7.600601,-6.3620258 0,-1.8315582 1.305382,-3.9776615 3.044212,-5.0048136 1.742951,-1.0295867 4.905661,-1.2600529 6.98537,-0.5090229 0.971779,0.3509312 2.19203,0.5268751 2.711669,0.3909864 1.695501,-0.4433836 2.634962,2.2561874 1.829853,5.2581411 -0.472306,1.7610488 -2.51768,1.6714748 -2.969836,-0.130061 -0.413904,-1.6491221 -2.126413,-2.7007975 -4.397878,-2.7007975 -3.422608,0 -5.462315,2.5735795 -3.469244,4.3772833 0.422423,0.382288 2.186195,1.010322 3.919491,1.395631 4.038266,0.8977 6.14784,1.968892 6.956276,3.532234 0.805805,1.558256 0.827808,3.94144 0.05027,5.445029 -1.296023,2.506233 -6.016475,3.929228 -9.575439,2.886546 z"
     id="path3431"
     inkscape:connector-curvature="0" />
  <path
     style="fill:#008080;fill-opacity:0"
     d="m 34.124619,22.644614 c -1.048729,-0.307249 -2.097458,-0.617918 -2.330508,-0.690374 -0.233051,-0.07246 -0.746278,0.01 -1.140503,0.183233 -0.394226,0.173234 -1.061599,0.248564 -1.483051,0.1674 -0.652013,-0.125566 -0.766277,-0.588999 -0.766277,-3.10787 0,-2.921694 0.01535,-2.962063 1.177087,-3.095518 0.973101,-0.111786 1.251397,0.07795 1.605886,1.094835 0.545374,1.564461 2.745399,2.64259 5.388183,2.640495 3.750361,-0.003 6.039069,-2.516367 3.984529,-4.3757 -0.422424,-0.382288 -2.186195,-1.010322 -3.919491,-1.395631 -5.691286,-1.265163 -7.600601,-2.86334 -7.600601,-6.3620258 0,-1.8315582 1.305382,-3.9776615 3.044212,-5.0048136 1.742951,-1.0295867 4.905661,-1.2600529 6.98537,-0.5090229 0.971779,0.3509312 2.19203,0.5268751 2.711669,0.3909864 1.695501,-0.4433836 2.634962,2.2561874 1.829853,5.2581411 -0.472306,1.7610488 -2.51768,1.6714748 -2.969836,-0.130061 -0.413904,-1.6491221 -2.126413,-2.7007975 -4.397878,-2.7007975 -3.422608,0 -5.462315,2.5735795 -3.469244,4.3772833 0.422423,0.382288 2.186195,1.010322 3.919491,1.395631 4.038266,0.8977 6.14784,1.968892 6.956276,3.532234 0.805805,1.558256 0.827808,3.94144 0.05027,5.445029 -1.296023,2.506233 -6.016475,3.929228 -9.575439,2.886546 z"
     id="path3433"
     inkscape:connector-curvature="0" />
  <path
     style="fill:#008080;fill-opacity:0"
     d="m 34.124619,22.644614 c -1.048729,-0.307249 -2.097458,-0.617918 -2.330508,-0.690374 -0.233051,-0.07246 -0.746278,0.01 -1.140503,0.183233 -0.394226,0.173234 -1.061599,0.248564 -1.483051,0.1674 -0.652013,-0.125566 -0.766277,-0.588999 -0.766277,-3.10787 0,-2.921694 0.01535,-2.962063 1.177087,-3.095518 0.973101,-0.111786 1.251397,0.07795 1.605886,1.094835 0.545374,1.564461 2.745399,2.64259 5.388183,2.640495 3.750361,-0.003 6.039069,-2.516367 3.984529,-4.3757 -0.422424,-0.382288 -2.186195,-1.010322 -3.919491,-1.395631 -5.691286,-1.265163 -7.600601,-2.86334 -7.600601,-6.3620258 0,-1.8315582 1.305382,-3.9776615 3.044212,-5.0048136 1.742951,-1.0295867 4.905661,-1.2600529 6.98537,-0.5090229 0.971779,0.3509312 2.19203,0.5268751 2.711669,0.3909864 1.695501,-0.4433836 2.634962,2.2561874 1.829853,5.2581411 -0.472306,1.7610488 -2.51768,1.6714748 -2.969836,-0.130061 -0.413904,-1.6491221 -2.126413,-2.7007975 -4.397878,-2.7007975 -3.422608,0 -5.462315,2.5735795 -3.469244,4.3772833 0.422423,0.382288 2.186195,1.010322 3.919491,1.395631 4.038266,0.8977 6.14784,1.968892 6.956276,3.532234 0.805805,1.558256 0.827808,3.94144 0.05027,5.445029 -1.296023,2.506233 -6.016475,3.929228 -9.575439,2.886546 z"
     id="path3435"
     inkscape:connector-curvature="0" />
  <path
     style="fill:#008080;fill-opacity:0"
     d="m 34.124619,22.644614 c -1.048729,-0.307249 -2.097458,-0.617918 -2.330508,-0.690374 -0.233051,-0.07246 -0.746278,0.01 -1.140503,0.183233 -0.394226,0.173234 -1.061599,0.248564 -1.483051,0.1674 -0.652013,-0.125566 -0.766277,-0.588999 -0.766277,-3.10787 0,-2.921694 0.01535,-2.962063 1.177087,-3.095518 0.973101,-0.111786 1.251397,0.07795 1.605886,1.094835 0.545374,1.564461 2.745399,2.64259 5.388183,2.640495 3.750361,-0.003 6.039069,-2.516367 3.984529,-4.3757 -0.422424,-0.382288 -2.186195,-1.010322 -3.919491,-1.395631 -5.691286,-1.265163 -7.600601,-2.86334 -7.600601,-6.3620258 0,-1.8315582 1.305382,-3.9776615 3.044212,-5.0048136 1.742951,-1.0295867 4.905661,-1.2600529 6.98537,-0.5090229 0.971779,0.3509312 2.19203,0.5268751 2.711669,0.3909864 1.695501,-0.4433836 2.634962,2.2561874 1.829853,5.2581411 -0.472306,1.7610488 -2.51768,1.6714748 -2.969836,-0.130061 -0.413904,-1.6491221 -2.126413,-2.7007975 -4.397878,-2.7007975 -3.422608,0 -5.462315,2.5735795 -3.469244,4.3772833 0.422423,0.382288 2.186195,1.010322 3.919491,1.395631 4.038266,0.8977 6.14784,1.968892 6.956276,3.532234 0.805805,1.558256 0.827808,3.94144 0.05027,5.445029 -1.296023,2.506233 -6.016475,3.929228 -9.575439,2.886546 z"
     id="path3437"
     inkscape:connector-curvature="0" />
</svg>
